<svg width="121" height="121" viewBox="0 0 121 121" fill="none" xmlns="http://www.w3.org/2000/svg" >
<path d="M0 0H144.124V144.124H0V0Z" fill="none" fill-opacity="0.02"/>
<path d="M91.5891 9.01801L76.5762 31.5374C73.5736 29.9412 67.5685 27.0332 60.062 27.0332C42.0465 27.0332 27.0336 42.0461 27.0336 58.5603C27.0336 75.0745 39.0439 93.0921 60.062 93.0921C76.8765 93.0921 88.5866 81.0815 88.5866 72.0738H60.062V51.0548C81.0801 51.0551 120.114 51.0539 120.114 51.0539C121.615 73.5742 114.978 86.7861 106.602 97.5942C94.0639 113.772 75.589 120.114 60.062 120.114C30.0362 120.114 0.0103455 96.0947 0.0103455 58.5603C0.0103455 22.5296 32.2091 0.0102539 57.0594 0.0102539C81.9097 0.0102539 91.5891 9.01801 91.5891 9.01801Z" fill="#2F88FF"/>
</svg>
