<svg width="145" height="145" viewBox="0 0 145 145" fill="none" xmlns="http://www.w3.org/2000/svg">
<path d="M0 0H144.124V144.124H0V0Z" fill="none" fill-opacity="0.02"/>
<path d="M88.109 91.5084C95.3263 90.0083 101.875 87.4075 106.966 83.5894C115.66 77.069 120.103 66.9983 120.103 57.0487C120.103 50.0689 117.457 43.5524 112.876 38.033C110.323 34.9575 117.79 12.0099 111.156 15.1005C104.521 18.1911 94.7939 25.0318 89.6949 23.5221C84.2359 21.9057 78.2872 21.0177 72.062 21.0177C66.6549 21.0177 61.4565 21.6876 56.6065 22.9229C49.5564 24.7183 42.8141 18.0151 36.031 15.1005C29.2477 12.1859 32.9491 35.9204 30.9344 38.4164C26.5464 43.8529 24.0206 50.2295 24.0206 57.0487C24.0206 66.9983 29.3978 77.069 38.0916 83.5894C43.883 87.9326 51.146 90.7007 59.2713 92.0651" stroke="#2F88FF" stroke-width="10" stroke-linecap="round"/>
<path d="M59.2716 92.0654C55.7931 95.8943 54.0537 99.5299 54.0537 102.973V129.144" stroke="#2F88FF" stroke-width="10" stroke-linecap="round"/>
<path d="M88.1088 91.5083C91.405 95.8344 93.0531 99.7189 93.0531 103.161V129.143" stroke="#2F88FF" stroke-width="10" stroke-linecap="round"/>
<path d="M18.0155 93.7266C20.7144 94.0565 22.7162 95.2975 24.0207 97.4495C25.9774 100.677 33.2512 112.65 41.511 112.65H54.0537" stroke="#2F88FF" stroke-width="10" stroke-linecap="round"/>
</svg>
