<svg width="145" height="145" viewBox="0 0 145 145" fill="none" xmlns="http://www.w3.org/2000/svg">
<path d="M0 0H144.124V144.124H0V0Z" fill="" fill-opacity="0.02"/>
<path d="M27.0233 36.0309C33.6564 36.0309 39.0336 30.6537 39.0336 24.0206C39.0336 17.3875 33.6564 12.0103 27.0233 12.0103C20.3901 12.0103 15.0129 17.3875 15.0129 24.0206C15.0129 30.6537 20.3901 36.0309 27.0233 36.0309Z" fill="#2F88FF" stroke="black" stroke-width="12.0103"/>
<path d="M15.0129 54.0464H39.0336V129.111H15.0129V54.0464Z" fill="#2F88FF" stroke="black" stroke-width="12.0103" stroke-linejoin="round"/>
<path d="M84.0723 129.111H63.0543V87.0748C63.0543 68.8338 77.8417 54.0464 96.0827 54.0464C114.324 54.0464 129.111 68.8338 129.111 87.0748V129.111H108.093V86.5118C108.093 79.8788 102.716 74.5015 96.0827 74.5015C89.4497 74.5015 84.0723 79.8788 84.0723 86.5118V129.111Z" fill="#2F88FF"/>
<path d="M63.0542 129.111H57.0491C57.0491 132.428 59.7376 135.116 63.0542 135.116V129.111ZM84.0723 129.111V135.116C87.389 135.116 90.0775 132.428 90.0775 129.111H84.0723ZM108.093 129.111H102.088C102.088 132.428 104.776 135.116 108.093 135.116V129.111ZM129.111 129.111V135.116C132.428 135.116 135.116 132.428 135.116 129.111H129.111ZM63.0542 135.116H84.0723V123.106H63.0542V135.116ZM90.0775 129.111V86.5121H78.0672V129.111H90.0775ZM102.088 86.5121V129.111H114.098V86.5121H102.088ZM108.093 135.116H129.111V123.106H108.093V135.116ZM135.116 129.111V87.0751H123.106V129.111H135.116ZM57.0491 87.0751V129.111H69.0594V87.0751H57.0491ZM135.116 87.0751C135.116 65.5174 117.64 48.0415 96.0827 48.0415V60.0518C111.007 60.0518 123.106 72.1504 123.106 87.0751H135.116ZM96.0827 80.5069C99.3993 80.5069 102.088 83.1955 102.088 86.5121H114.098C114.098 76.5624 106.032 68.4966 96.0827 68.4966V80.5069ZM96.0827 48.0415C74.525 48.0415 57.0491 65.5174 57.0491 87.0751H69.0594C69.0594 72.1504 81.158 60.0518 96.0827 60.0518V48.0415ZM90.0775 86.5121C90.0775 83.1955 92.766 80.5069 96.0827 80.5069V68.4966C86.133 68.4966 78.0672 76.5624 78.0672 86.5121H90.0775Z" fill="black"/>
</svg>
