<svg width="55" height="55" viewBox="0 0 55 55" fill="none" xmlns="http://www.w3.org/2000/svg">
<circle cx="27.5" cy="27.5" r="27.5" fill="#007CED"/>
<path d="M38.1738 32.3521C38.1738 33.5939 37.889 34.7048 37.3193 35.6846C36.7497 36.653 36.0148 37.4733 35.1147 38.1455C34.2147 38.8063 33.2121 39.3133 32.1069 39.6665C31.0132 40.0197 29.9308 40.1963 28.8599 40.1963C26.8547 40.1963 25.0033 39.8317 23.3057 39.1025C21.6081 38.3734 20.0985 37.3024 18.7769 35.8896V36.2998C18.7769 36.6644 18.7826 37.0233 18.7939 37.3765C18.8053 37.7297 18.8224 38.0828 18.8452 38.436V38.5044C18.8452 38.7323 18.7655 38.9316 18.606 39.1025C18.4578 39.2734 18.2585 39.3703 18.0078 39.3931C17.7458 39.3931 17.5293 39.3133 17.3584 39.1538C17.1875 38.9943 17.0907 38.7892 17.0679 38.5386C17.0451 38.174 17.028 37.8094 17.0166 37.4448C17.0052 37.0688 16.9995 36.6986 16.9995 36.334C16.9995 35.1719 17.0565 34.1009 17.1704 33.1211C17.2843 32.1299 17.4382 31.1501 17.6318 30.1816C17.6888 29.9652 17.7913 29.7886 17.9395 29.6519C18.099 29.5151 18.2869 29.4468 18.5034 29.4468C18.7655 29.4468 18.9819 29.5493 19.1528 29.7544C19.3237 29.9481 19.4092 30.1475 19.4092 30.3525C19.4092 30.3753 19.4092 30.4038 19.4092 30.438C19.4092 30.4608 19.3978 30.4893 19.375 30.5234C19.318 30.7855 19.2668 31.0304 19.2212 31.2583C19.187 31.4748 19.1471 31.6912 19.1016 31.9077C19.0674 32.1128 19.0332 32.3293 18.999 32.5571C18.9762 32.7736 18.9478 33.0186 18.9136 33.292C20.1896 34.9326 21.6479 36.1973 23.2886 37.0859C24.9292 37.9632 26.7749 38.4019 28.8257 38.4019C29.4067 38.4019 30.0277 38.3506 30.6885 38.248C31.3607 38.1455 31.9759 37.9632 32.5342 37.7012C33.1038 37.4277 33.571 37.0688 33.9355 36.6245C34.3115 36.1688 34.4995 35.5934 34.4995 34.8984C34.4995 34.4085 34.3685 33.9642 34.1064 33.5654C33.8444 33.1553 33.5026 32.7907 33.0811 32.4717C32.6595 32.1527 32.181 31.8735 31.6455 31.6343C31.1214 31.3836 30.5916 31.1672 30.0562 30.9849C29.5207 30.8026 29.008 30.6545 28.5181 30.5405C28.0396 30.4152 27.6294 30.3184 27.2876 30.25C26.4787 30.0791 25.6755 29.8911 24.8779 29.686C24.0804 29.4696 23.3228 29.2132 22.605 28.917C21.8872 28.6208 21.2207 28.2733 20.6055 27.8745C19.9902 27.4757 19.4548 27.0086 18.999 26.4731C18.5547 25.9263 18.2015 25.2939 17.9395 24.5762C17.6888 23.8584 17.5635 23.0324 17.5635 22.0981C17.5635 21.1867 17.6831 20.3493 17.9224 19.5859C18.173 18.8112 18.5148 18.1162 18.9478 17.501C19.3807 16.8857 19.8877 16.3503 20.4688 15.8945C21.0612 15.4274 21.7049 15.04 22.3999 14.7324C23.0949 14.4134 23.8241 14.1799 24.5874 14.0317C25.3621 13.8722 26.1426 13.7925 26.9287 13.7925C27.4072 13.7925 27.9142 13.8324 28.4497 13.9121C28.9966 13.9805 29.5378 14.083 30.0732 14.2197C30.6087 14.3451 31.1328 14.4989 31.6455 14.6812C32.1696 14.8521 32.6538 15.0457 33.0981 15.2622C33.5425 15.4673 33.9355 15.6895 34.2773 15.9287C34.6191 16.1566 34.8926 16.3901 35.0977 16.6294C35.2572 16.1965 35.4281 15.7692 35.6104 15.3477C35.804 14.9147 36.0034 14.4818 36.2085 14.0488C36.2996 13.8893 36.4136 13.7697 36.5503 13.6899C36.6984 13.5988 36.8522 13.5532 37.0117 13.5532C37.2738 13.5532 37.4902 13.6501 37.6611 13.8438C37.832 14.026 37.9175 14.2311 37.9175 14.459C37.9175 14.5843 37.8833 14.7153 37.8149 14.8521C37.2225 16.0825 36.7326 17.3187 36.3452 18.5605C35.9692 19.791 35.7015 21.0386 35.542 22.3032C35.5192 22.5311 35.4224 22.7191 35.2515 22.8672C35.092 23.0039 34.8983 23.0723 34.6704 23.0723C34.4084 23.0723 34.1919 22.9754 34.021 22.7817C33.8501 22.5881 33.7646 22.3944 33.7646 22.2007V22.0981C33.9014 20.8905 34.1463 19.6999 34.4995 18.5264C34.4312 18.3213 34.2546 18.1048 33.9697 17.877C33.6849 17.6377 33.3317 17.4098 32.9102 17.1934C32.5 16.9769 32.0329 16.7718 31.5088 16.5781C30.9847 16.373 30.4492 16.1965 29.9023 16.0483C29.3555 15.9002 28.8086 15.7806 28.2617 15.6895C27.7148 15.5983 27.2135 15.5527 26.7578 15.5527C26.0628 15.5527 25.3963 15.6268 24.7583 15.7749C24.1203 15.923 23.5506 16.1623 23.0493 16.4927C22.5594 16.8231 22.1606 17.2503 21.853 17.7744C21.5454 18.2871 21.3859 18.908 21.3745 19.6372C21.4201 20.2752 21.591 20.8278 21.8872 21.2949C22.1948 21.7507 22.5708 22.1494 23.0151 22.4912C23.4709 22.833 23.9836 23.1235 24.5532 23.3628C25.1229 23.5907 25.6982 23.79 26.2793 23.9609C26.8717 24.1204 27.4471 24.2629 28.0054 24.3882C28.5636 24.5021 29.0706 24.6104 29.5264 24.7129C30.6771 24.9863 31.7765 25.2939 32.8247 25.6357C33.8729 25.9775 34.79 26.4276 35.5762 26.9858C36.3737 27.5441 37.006 28.2562 37.4731 29.1221C37.9403 29.9766 38.1738 31.0532 38.1738 32.3521Z" fill="white"/>
</svg>
