<svg width="31" height="35" viewBox="0 0 31 35" fill="none" xmlns="http://www.w3.org/2000/svg">
<path d="M20.8974 22.8582C22.9368 22.4343 24.7874 21.6994 26.226 20.6205C28.6827 18.778 29.9382 15.9322 29.9382 13.1207C29.9382 11.1484 29.1905 9.30699 27.8959 7.74737C27.1745 6.87829 29.2845 0.393902 27.4098 1.26722C25.5352 2.14053 22.7864 4.07356 21.3456 3.64695C19.803 3.1902 18.122 2.93927 16.3629 2.93927C14.835 2.93927 13.3661 3.12857 11.9956 3.47762C10.0034 3.98497 8.09822 2.09081 6.18148 1.26722C4.2647 0.443621 5.31062 7.15039 4.74131 7.85571C3.50137 9.39192 2.78766 11.1938 2.78766 13.1207C2.78766 15.9322 4.30712 18.778 6.76377 20.6205C8.40027 21.8477 10.4526 22.6299 12.7486 23.0155" stroke="white" stroke-width="2" stroke-linecap="round"/>
<path d="M12.7487 23.0154C11.7657 24.0973 11.2742 25.1246 11.2742 26.0975V33.4928" stroke="white" stroke-width="2" stroke-linecap="round"/>
<path d="M20.8973 22.8582C21.8288 24.0806 22.2945 25.1783 22.2945 26.151V33.4928" stroke="white" stroke-width="2" stroke-linecap="round"/>
<path d="M1.0907 23.4851C1.85335 23.5784 2.41899 23.929 2.78761 24.5371C3.34054 25.4491 5.39593 28.8325 7.72994 28.8325H11.2742" stroke="white" stroke-width="2" stroke-linecap="round"/>
</svg>
