<svg width="145" height="145" viewBox="0 0 145 145" fill="none" xmlns="http://www.w3.org/2000/svg">
<path d="M0 0H144.124V144.124H0V0Z" fill="" fill-opacity="0.02"/>
<path d="M102.088 18.0156H42.0362C28.7699 18.0156 18.0155 28.77 18.0155 42.0363V102.088C18.0155 115.354 28.7699 126.109 42.0362 126.109H102.088C115.354 126.109 126.109 115.354 126.109 102.088V42.0363C126.109 28.77 115.354 18.0156 102.088 18.0156Z" fill="#2F88FF" stroke="black" stroke-width="12.0103" stroke-linejoin="round"/>
<path d="M72.0621 96.0828C85.3284 96.0828 96.0827 85.3285 96.0827 72.0622C96.0827 58.7959 85.3284 48.0415 72.0621 48.0415C58.7957 48.0415 48.0414 58.7959 48.0414 72.0622C48.0414 85.3285 58.7957 96.0828 72.0621 96.0828Z" fill="#43CCF8" stroke="white" stroke-width="12.0103" stroke-linejoin="round"/>
<path d="M105.09 45.0387C108.407 45.0387 111.096 42.3501 111.096 39.0335C111.096 35.7168 108.407 33.0283 105.09 33.0283C101.774 33.0283 99.0852 35.7168 99.0852 39.0335C99.0852 42.3501 101.774 45.0387 105.09 45.0387Z" fill="white"/>
</svg>
