<svg width="111" height="111" viewBox="0 0 111 111" fill="none" xmlns="http://www.w3.org/2000/svg">
<path d="M0 0H144.124V144.124H0V0Z" fill="none" fill-opacity="0.02"/>
<path d="M33.0328 6.07812C35.2142 6.07812 37.2241 7.2612 38.2831 9.16856L45.6286 22.4004C46.5904 24.1329 46.6357 26.2284 45.7493 28.0008L38.6729 42.1541C38.6729 42.1541 40.7236 52.6973 49.3062 61.2799C57.8891 69.8625 68.3969 71.8779 68.3969 71.8779L82.5478 64.8026C84.3214 63.9156 86.4184 63.9615 88.1515 64.9251L101.421 72.3024C103.327 73.362 104.508 75.3708 104.508 77.5509V92.7845C104.508 100.542 97.3022 106.145 89.9519 103.665C74.8549 98.5711 51.4206 88.8722 36.5674 74.0187C21.7143 59.1655 12.0151 35.7313 6.9211 20.6346C4.44091 13.2839 10.044 6.07812 17.8016 6.07812H33.0328Z" fill="#2F88FF" stroke="black" stroke-width="12.0103" stroke-linejoin="round"/>
</svg>
