<svg width="397" height="267" viewBox="0 0 397 267" fill="none" xmlns="http://www.w3.org/2000/svg">
<mask id="mask0_1_7" style="mask-type:luminance" maskUnits="userSpaceOnUse" x="0" y="0" width="397" height="267">
<path d="M397 0H0V267H397V0Z" fill="white"/>
</mask>
<g mask="url(#mask0_1_7)">
<path d="M223.036 191.95V247.19C232.02 251.794 242.646 255.246 254.912 257.548C267.178 259.85 280.106 261 293.698 261C306.942 261 319.526 259.734 331.446 257.202C343.366 254.67 353.82 250.498 362.802 244.688C371.786 238.876 378.898 231.28 384.14 221.9C389.38 212.522 392 200.928 392 187.118C392 177.106 390.502 168.33 387.508 160.792C384.514 153.254 380.194 146.55 374.55 140.682C368.908 134.812 362.14 129.548 354.252 124.886C346.362 120.226 337.464 115.824 327.558 111.682C320.302 108.688 313.796 105.784 308.036 102.964C302.278 100.144 297.382 97.268 293.352 94.332C289.32 91.398 286.21 88.29 284.022 85.01C281.834 81.73 280.74 78.02 280.74 73.876C280.74 70.078 281.718 66.656 283.676 63.606C285.634 60.556 288.4 57.938 291.97 55.752C295.54 53.564 299.916 51.868 305.1 50.658C310.282 49.45 316.042 48.846 322.376 48.846C326.984 48.846 331.85 49.192 336.974 49.882C342.1 50.572 347.254 51.636 352.438 53.076C357.62 54.514 362.658 56.326 367.554 58.514C372.448 60.7 376.97 63.232 381.116 66.108V14.494C372.708 11.272 363.522 8.884 353.56 7.33C343.598 5.776 332.166 5 319.266 5C306.136 5 293.698 6.41 281.95 9.23C270.202 12.048 259.864 16.45 250.938 22.434C242.012 28.42 234.958 36.044 229.774 45.308C224.592 54.572 222 65.648 222 78.538C222 94.994 226.75 109.034 236.254 120.658C245.756 132.28 260.18 142.12 279.53 150.176C287.132 153.284 294.216 156.332 300.78 159.326C307.346 162.318 313.018 165.424 317.798 168.646C322.578 171.868 326.35 175.378 329.114 179.176C331.878 182.974 333.26 187.29 333.26 192.124C333.26 195.69 332.396 199 330.668 202.05C328.942 205.098 326.32 207.746 322.808 209.99C319.296 212.234 314.918 213.988 309.678 215.254C304.438 216.52 298.304 217.154 291.278 217.154C279.3 217.154 267.438 215.054 255.69 210.852C243.94 206.652 233.056 200.352 223.036 191.95ZM130.964 54.484H202V9H4V54.484H74.689V257H130.964V54.484Z" fill="#007CED"/>
</g>
</svg>
